<svg xmlns="http://www.w3.org/2000/svg" xmlns:xlink="http://www.w3.org/1999/xlink" width="1016.482" height="1409.56" viewBox="0 0 1016.482 1409.56"><defs><style>.a{fill:url(#a);}</style><linearGradient id="a" x1="0.5" x2="0.5" y2="1" gradientUnits="objectBoundingBox"><stop offset="0" stop-color="#963636"/><stop offset="1" stop-color="#246c32"/></linearGradient></defs><path class="a" d="M1016.482,1409.56H0V0H1016.482V1409.559ZM183.947,83.261l-18.834,46.23,33.365,93.188,16.937,97.469,77.128,104.6,33.327,177.574-33.327,51.246L258.983,812.7l13.27,147.41,92.655,146.909,141.691,70.62,146.308-62.934,55.722-104.645,36.836-166.492L727.592,694.4,691.46,544.882l27.486-92.655,17.4-120.667,116.2-172.776L837.012,116.73l-77.975,42.054L691.46,262.544l-86.8,180.812L535.645,613.92h-68.8L375.473,463.15,364.909,360.5,313.446,253.682Z" transform="translate(0 0)"/></svg>